<?xml version="1.0" standalone="no"?>
<!DOCTYPE svg PUBLIC "-//W3C//DTD SVG 1.1//EN" "http://www.w3.org/Graphics/SVG/1.1/DTD/svg11.dtd" >
<svg xmlns="http://www.w3.org/2000/svg">
<metadata>Generated by IcoMoon</metadata>
<defs>
<font id="bpiconset" horiz-adv-x="1024">
<font-face units-per-em="1024" ascent="960" descent="-64" />
<missing-glyph horiz-adv-x="1024" />
<glyph unicode="&#x20;" horiz-adv-x="512" d="" />
<glyph unicode="&#xe900;" glyph-name="Document-View" d="M682.667 192c23.893 0 42.667-18.773 42.667-42.667s-18.773-42.667-42.667-42.667c-23.893 0-42.667 18.773-42.667 42.667s18.773 42.667 42.667 42.667v0zM682.667 320c-116.48 0-215.893-70.827-256-170.667 40.107-99.84 139.52-170.667 256-170.667s215.893 70.827 256 170.667c-40.107 99.84-139.52 170.667-256 170.667v0zM682.667 42.667c-58.91 0-106.667 47.756-106.667 106.667s47.756 106.667 106.667 106.667c58.91 0 106.667-47.756 106.667-106.667s-47.756-106.667-106.667-106.667v0zM352.853 106.667h-139.52v682.667h298.667v-213.333h213.333v-173.653c29.867-3.413 58.027-10.667 85.333-20.907v237.227l-256 256h-341.333c-47.128 0-85.333-38.205-85.333-85.333v-682.667c0-47.128 38.205-85.333 85.333-85.333h192c-21.333 25.173-38.827 54.187-52.48 85.333z" />
<glyph unicode="&#xe901;" glyph-name="Step4-outline" d="M384 661.333h85.333v-170.667h85.333v170.667h85.333v-426.667h-85.333v170.667h-170.667v256zM512 874.667c113.159 0 221.683-44.952 301.699-124.968s124.968-188.54 124.968-301.699c0-235.641-191.025-426.667-426.667-426.667-113.159 0-221.683 44.952-301.699 124.968s-124.968 188.54-124.968 301.699c0 113.159 44.952 221.683 124.968 301.699s188.54 124.968 301.699 124.968v0zM512 789.333c-188.513 0-341.333-152.82-341.333-341.333s152.82-341.333 341.333-341.333c90.527 0 177.347 35.962 241.359 99.974s99.974 150.832 99.974 241.359c0 188.513-152.82 341.333-341.333 341.333z" />
<glyph unicode="&#xe902;" glyph-name="Step1" d="M512 21.333c-235.641 0-426.667 191.025-426.667 426.667s191.025 426.667 426.667 426.667c235.641 0 426.667-191.025 426.667-426.667s-191.025-426.667-426.667-426.667zM576.281 243.677v417.656h-8.88l-172.734-61.875v-67.318l98.828 30.651v-319.115h82.786z" />
<glyph unicode="&#xe903;" glyph-name="Step3-outline" d="M640 320c0-47.128-38.205-85.333-85.333-85.333h-170.667v85.333h170.667v85.333h-85.333v85.333h85.333v85.333h-170.667v85.333h170.667c47.128 0 85.333-38.205 85.333-85.333v-64c0-35.346-28.654-64-64-64 35.346 0 64-28.654 64-64v-64zM512 874.667c113.159 0 221.683-44.952 301.699-124.968s124.968-188.54 124.968-301.699c0-235.641-191.025-426.667-426.667-426.667-113.159 0-221.683 44.952-301.699 124.968s-124.968 188.54-124.968 301.699c0 113.159 44.952 221.683 124.968 301.699s188.54 124.968 301.699 124.968v0zM512 789.333c-188.513 0-341.333-152.82-341.333-341.333s152.82-341.333 341.333-341.333c90.527 0 177.347 35.962 241.359 99.974s99.974 150.832 99.974 241.359c0 188.513-152.82 341.333-341.333 341.333z" />
<glyph unicode="&#xe904;" glyph-name="Step2" d="M512 21.333c-235.641 0-426.667 191.025-426.667 426.667s191.025 426.667 426.667 426.667c235.641 0 426.667-191.025 426.667-426.667s-191.025-426.667-426.667-426.667zM656.859 238.521v66.745h-179.323l94.818 99.974c25.972 28.455 44.306 53.377 55 74.766s16.042 42.396 16.042 63.021c0 37.622-11.888 66.745-35.664 87.37s-57.148 30.938-100.117 30.938c-28.073 0-53.186-5.968-75.339-17.904s-39.292-28.407-51.419-49.414c-12.127-21.007-18.19-44.21-18.19-69.609h83.073c0 21.007 5.395 37.956 16.185 50.846s25.542 19.336 44.258 19.336c17.379 0 30.746-5.299 40.104-15.898s14.036-25.16 14.036-43.685c0-13.559-4.44-27.882-13.32-42.969s-22.582-32.752-41.107-52.995l-134.922-143.802v-56.719h285.885z" />
<glyph unicode="&#xe905;" glyph-name="Step2-outline" d="M384 661.333h170.667c47.128 0 85.333-38.205 85.333-85.333v-85.333c0-47.128-38.205-85.333-85.333-85.333h-85.333v-85.333h170.667v-85.333h-256v170.667c0 47.128 38.205 85.333 85.333 85.333h85.333v85.333h-170.667v85.333zM512 874.667c113.159 0 221.683-44.952 301.699-124.968s124.968-188.54 124.968-301.699c0-235.641-191.025-426.667-426.667-426.667-113.159 0-221.683 44.952-301.699 124.968s-124.968 188.54-124.968 301.699c0 113.159 44.952 221.683 124.968 301.699s188.54 124.968 301.699 124.968v0zM512 789.333c-188.513 0-341.333-152.82-341.333-341.333s152.82-341.333 341.333-341.333c90.527 0 177.347 35.962 241.359 99.974s99.974 150.832 99.974 241.359c0 188.513-152.82 341.333-341.333 341.333z" />
<glyph unicode="&#xe906;" glyph-name="Step3" d="M512 21.333c-235.641 0-426.667 191.025-426.667 426.667s191.025 426.667 426.667 426.667c235.641 0 426.667-191.025 426.667-426.667s-191.025-426.667-426.667-426.667zM456.911 483.729v-64.74h43.828c45.834 0 68.75-20.816 68.75-62.448 0-17.188-5.586-30.985-16.758-41.393s-26.593-15.612-46.263-15.612c-17.188 0-31.654 4.965-43.398 14.896s-17.617 22.726-17.617 38.385h-82.786c0-36.094 13.225-65.121 39.674-87.083s60.49-32.943 102.122-32.943c44.497 0 80.256 11.172 107.279 33.516s40.534 52.040 40.534 89.089c0 22.917-5.777 42.778-17.331 59.583s-29.075 29.41-52.565 37.813c18.906 8.594 34.184 20.911 45.833 36.953s17.474 33.611 17.474 52.708c0 37.049-12.509 66.124-37.526 87.227s-59.583 31.654-103.698 31.654c-25.399 0-48.65-4.87-69.753-14.609s-37.526-23.251-49.271-40.534c-11.745-17.283-17.617-36.81-17.617-58.581h82.786c0 13.941 5.347 25.256 16.042 33.945s23.967 13.034 39.818 13.034c17.57 0 31.367-4.679 41.393-14.036s15.039-22.439 15.039-39.245c0-17.379-5.061-31.319-15.182-41.823s-25.686-15.755-46.693-15.755h-44.115z" />
<glyph unicode="&#xe907;" glyph-name="Step1-outline" d="M426.667 661.333h170.667v-426.667h-85.333v341.333h-85.333v85.333zM512 874.667c113.159 0 221.683-44.952 301.699-124.968s124.968-188.54 124.968-301.699c0-235.641-191.025-426.667-426.667-426.667-113.159 0-221.683 44.952-301.699 124.968s-124.968 188.54-124.968 301.699c0 113.159 44.952 221.683 124.968 301.699s188.54 124.968 301.699 124.968v0zM512 789.333c-188.513 0-341.333-152.82-341.333-341.333s152.82-341.333 341.333-341.333c90.527 0 177.347 35.962 241.359 99.974s99.974 150.832 99.974 241.359c0 188.513-152.82 341.333-341.333 341.333z" />
<glyph unicode="&#xe908;" glyph-name="Approved" d="M597.333 874.667l256-256v-512c0-47.128-38.205-85.333-85.333-85.333h-512c-47.128 0-85.333 38.205-85.333 85.333v682.667c0 47.128 38.205 85.333 85.333 85.333h341.333zM768 106.667v469.333h-213.333v213.333h-298.667v-682.667h512zM477.867 172.373l-117.333 128 49.493 49.493 67.84-67.413 152.747 152.747 49.92-60.16-202.667-202.667z" />
<glyph unicode="&#xe909;" glyph-name="Document" d="M288 832c-41.237 0-74.667-33.429-74.667-74.667v-597.333c0-41.237 33.429-74.667 74.667-74.667h448c41.237 0 74.667 33.429 74.667 74.667v448l-224 224h-298.667zM288 757.333h261.333v-186.667h186.667v-410.667h-448v597.333zM362.667 458.667v-74.667h298.667v74.667h-298.667zM362.667 309.333v-74.667h186.667v74.667h-186.667z" />
<glyph unicode="&#xe90a;" glyph-name="Approval" d="M428.237 960h167.525c140.954 0 197.994-15.842 253.619-45.591s99.279-73.403 129.028-129.028c29.748-55.625 45.591-112.665 45.591-253.619v-167.525c0-140.954-15.842-197.994-45.591-253.619s-73.403-99.279-129.028-129.028c-55.625-29.748-112.665-45.591-253.619-45.591h-167.525c-140.954 0-197.994 15.842-253.619 45.591s-99.279 73.403-129.028 129.028c-29.748 55.625-45.591 112.665-45.591 253.619v167.525c0 140.954 15.842 197.994 45.591 253.619s73.403 99.279 129.028 129.028c55.625 29.748 112.665 45.591 253.619 45.591zM428.237 874.667c-116.483 0-164.883-9.571-213.376-35.505-40.754-21.795-72.227-53.269-94.023-94.023-25.934-48.493-35.505-96.893-35.505-213.376v-167.525c0-116.483 9.571-164.883 35.505-213.376 21.795-40.754 53.269-72.227 94.023-94.023 48.493-25.934 96.893-35.505 213.376-35.505h167.525c116.483 0 164.883 9.571 213.376 35.505 40.754 21.795 72.227 53.269 94.023 94.023 25.934 48.493 35.505 96.893 35.505 213.376v167.525c0 116.483-9.571 164.883-35.505 213.376-21.795 40.754-53.269 72.227-94.023 94.023-48.493 25.934-96.893 35.505-213.376 35.505h-167.525zM744.296 174.933h-464.593v375.467h464.593v-375.467zM682.667 452.076l-40.107 38.59-187.449-179.091-73.387 69.843-40.391-38.318 113.778-108.433 227.556 217.41zM744.296 721.067h-33.185v68.267h-66.37v-68.267h-265.481v68.267h-66.37v-68.267h-33.185c-36.836 0-66.37-30.72-66.37-68.267v-477.867c0-37.703 29.715-68.267 66.37-68.267h464.593c36.655 0 66.37 30.564 66.37 68.267v477.867c0 37.703-29.715 68.267-66.37 68.267v0z" />
<glyph unicode="&#xe90b;" glyph-name="Issue" d="M428.237 960h167.525c140.954 0 197.994-15.842 253.619-45.591s99.279-73.403 129.028-129.028c29.748-55.625 45.591-112.665 45.591-253.619v-167.525c0-140.954-15.842-197.994-45.591-253.619s-73.403-99.279-129.028-129.028c-55.625-29.748-112.665-45.591-253.619-45.591h-167.525c-140.954 0-197.994 15.842-253.619 45.591s-99.279 73.403-129.028 129.028c-29.748 55.625-45.591 112.665-45.591 253.619v167.525c0 140.954 15.842 197.994 45.591 253.619s73.403 99.279 129.028 129.028c55.625 29.748 112.665 45.591 253.619 45.591zM428.237 874.667c-116.483 0-164.883-9.571-213.376-35.505-40.754-21.795-72.227-53.269-94.023-94.023-25.934-48.493-35.505-96.893-35.505-213.376v-167.525c0-116.483 9.571-164.883 35.505-213.376 21.795-40.754 53.269-72.227 94.023-94.023 48.493-25.934 96.893-35.505 213.376-35.505h167.525c116.483 0 164.883 9.571 213.376 35.505 40.754 21.795 72.227 53.269 94.023 94.023 25.934 48.493 35.505 96.893 35.505 213.376v167.525c0 116.483-9.571 164.883-35.505 213.376-21.795 40.754-53.269 72.227-94.023 94.023-48.493 25.934-96.893 35.505-213.376 35.505h-167.525zM744.296 174.933h-464.593v375.467h464.593v-375.467zM744.296 721.067h-33.185v68.267h-66.37v-68.267h-265.481v68.267h-66.37v-68.267h-33.185c-36.836 0-66.37-30.72-66.37-68.267v-477.867c0-37.703 29.715-68.267 66.37-68.267h464.593c36.655 0 66.37 30.564 66.37 68.267v477.867c0 37.703-29.715 68.267-66.37 68.267v0zM597.333 285.867c0-28.416-25.6-51.2-56.889-51.2h-113.778v51.2h113.778v51.2h-56.889v51.2h56.889v51.2h-113.778v51.2h113.778c31.419 0 56.889-22.923 56.889-51.2v-38.4c0-21.208-19.103-38.4-42.667-38.4 23.564 0 42.667-17.192 42.667-38.4v-38.4z" />
<glyph unicode="&#xe90c;" glyph-name="Account" d="M851.583 85.88c20.847 18.033 38.071 39.725 51.578 64.982 25.934 48.493 35.505 96.893 35.505 213.376v167.525c0 116.483-9.571 164.883-35.505 213.376-21.795 40.754-53.269 72.227-94.023 94.023-48.493 25.934-96.893 35.505-213.376 35.505h-167.525c-116.483 0-164.883-9.571-213.376-35.505-40.754-21.795-72.227-53.269-94.023-94.023-25.934-48.493-35.505-96.893-35.505-213.376v-167.525c0-116.483 9.571-164.883 35.505-213.376 13.507-25.256 30.732-46.949 51.578-64.982-1.158 6.527-1.75 13.448-1.75 20.787 0 117.821 152.82 213.333 341.333 213.333s341.333-95.513 341.333-213.333c0-7.339-0.593-14.26-1.75-20.787zM428.237 960h167.525c140.954 0 197.994-15.842 253.619-45.591s99.279-73.403 129.028-129.028c29.748-55.625 45.591-112.665 45.591-253.619v-167.525c0-140.954-15.842-197.994-45.591-253.619s-73.403-99.279-129.028-129.028c-55.625-29.748-112.665-45.591-253.619-45.591h-167.525c-140.954 0-197.994 15.842-253.619 45.591s-99.279 73.403-129.028 129.028c-29.748 55.625-45.591 112.665-45.591 253.619v167.525c0 140.954 15.842 197.994 45.591 253.619s73.403 99.279 129.028 129.028c55.625 29.748 112.665 45.591 253.619 45.591zM512 405.333c-94.257 0-170.667 76.41-170.667 170.667s76.41 170.667 170.667 170.667c94.257 0 170.667-76.41 170.667-170.667s-76.41-170.667-170.667-170.667z" />
<glyph unicode="&#xe90d;" glyph-name="Agent" d="M597.54 960h-167.525c-140.954 0-197.994-15.842-253.619-45.591s-99.279-73.403-129.028-129.028c-29.748-55.625-45.591-112.665-45.591-253.619v-167.525c0-140.954 15.842-197.994 45.591-253.619s73.403-99.279 129.028-129.028c55.625-29.748 112.665-45.591 253.619-45.591h167.525c140.954 0 197.994 15.842 253.619 45.591s99.279 73.403 129.028 129.028c29.748 55.625 45.591 112.665 45.591 253.619v167.525c0 140.954-15.842 197.994-45.591 253.619s-73.403 99.279-129.028 129.028c-55.625 29.748-112.665 45.591-253.619 45.591zM597.54 874.667c116.483 0 164.883-9.571 213.376-35.505 40.754-21.795 72.227-53.269 94.023-94.023 25.934-48.493 35.505-96.893 35.505-213.376v-167.525c0-116.483-9.571-164.883-35.505-213.376-21.795-40.754-53.269-72.227-94.023-94.023-48.493-25.934-96.893-35.505-213.376-35.505h-167.525c-116.483 0-164.883 9.571-213.376 35.505-40.754 21.795-72.227 53.269-94.023 94.023-25.934 48.493-35.505 96.893-35.505 213.376v167.525c0 116.483 9.571 164.883 35.505 213.376 21.795 40.754 53.269 72.227 94.023 94.023 48.493 25.934 96.893 35.505 213.376 35.505h167.525zM284.402 344.247c-11.947 31.953-18.432 66.162-18.432 103.753 0 27.066 3.755 53.004 10.24 77.063 22.187-5.639 45.397-8.646 69.632-8.646 104.448 0 196.949 56.764 253.269 144.352 30.379-81.198 88.405-147.36 161.451-183.448 1.365-9.398 1.365-19.548 1.365-29.322 0-150.935-111.1-273.292-248.149-273.292-35.84 0-70.315 8.646-101.376 24.059-19.456-40.975-28.331-61.275-27.648-61.275 55.979-20.675 99.328-30.825 129.024-30.825 82.603 0 161.451 35.712 219.477 99.994 35.499 39.095 61.781 86.837 76.459 138.714h45.397v171.043h-37.205c-28.672 155.63-153.941 272.916-304.128 272.916-81.92 0-160.768-35.712-219.136-99.994-43.349-47.366-72.363-107.888-84.309-172.922h-37.888v-171.043h2.048l121.515-122.925 180.907 22.555v62.778h-164.864l-27.648 36.464zM598.923 448c-11.278 0-22.179-4.511-30.073-12.781-7.894-7.894-12.405-18.796-12.405-30.073s4.511-22.179 12.405-30.073c7.894-7.894 18.796-12.405 30.073-12.405 23.683 0 42.855 18.796 42.855 42.479s-19.172 42.855-42.855 42.855v0zM428.257 448c-23.683 0-42.479-19.172-42.479-42.855s18.796-42.479 42.479-42.479c23.683 0 42.855 18.796 42.855 42.479 0 23.668-19.187 42.855-42.855 42.855z" />
<glyph unicode="&#xe90e;" glyph-name="Attorney-In-Fact" d="M595.763 21.333h-128.341v38.204c0 42.199 34.239 76.408 76.475 76.408h229.425c34.54 0 63.732-22.879 73.224-54.296 23.124 18.838 42.036 41.948 56.616 69.211 25.934 48.493 35.505 96.893 35.505 213.376v167.525c0 116.483-9.571 164.883-35.505 213.376-21.795 40.754-53.269 72.227-94.023 94.023-48.493 25.934-96.893 35.505-213.376 35.505h-167.525c-116.483 0-164.883-9.571-213.376-35.505-40.754-21.795-72.227-53.269-94.023-94.023-25.934-48.493-35.505-96.893-35.505-213.376v-167.525c0-114.971 9.324-163.615 34.504-211.488l301.094 301.055-53.532 54.25-27.531-27.125c-14.913-14.9-39.002-14.9-53.915 0l-27.149 27.125c-14.913 14.9-14.913 38.968 0 53.868l216.424 216.236c14.913 14.9 39.002 14.9 53.915 0l27.149-27.125c14.913-14.9 14.913-38.968 0-53.868l-27.149-26.361 54.297-54.632c14.913 14.9 39.002 14.9 53.915 0s14.913-39.35 0-54.25l53.915-53.868 27.149 27.125c14.913 14.9 39.385 14.9 54.297 0l26.766-27.125c14.913-14.9 14.913-39.35 0-54.25l-216.042-215.854c-14.913-14.9-39.385-14.9-54.297 0l-26.766 26.743c-15.295 14.9-15.295 39.35 0 54.25l26.766 27.125-53.915 53.868-308.76-308.721c14.31-13.312 30.452-24.783 48.393-34.378 48.493-25.934 96.893-35.505 213.376-35.505h167.525zM428.237 960h167.525c140.954 0 197.994-15.842 253.619-45.591s99.279-73.403 129.028-129.028c29.748-55.625 45.591-112.665 45.591-253.619v-167.525c0-140.954-15.842-197.994-45.591-253.619s-73.403-99.279-129.028-129.028c-55.625-29.748-112.665-45.591-253.619-45.591h-167.525c-140.954 0-197.994 15.842-253.619 45.591s-99.279 73.403-129.028 129.028c-29.748 55.625-45.591 112.665-45.591 253.619v167.525c0 140.954 15.842 197.994 45.591 253.619s73.403 99.279 129.028 129.028c55.625 29.748 112.665 45.591 253.619 45.591z" />
<glyph unicode="&#xe90f;" glyph-name="Billing" d="M428.237 960h167.525c140.954 0 197.994-15.842 253.619-45.591s99.279-73.403 129.028-129.028c29.748-55.625 45.591-112.665 45.591-253.619v-167.525c0-140.954-15.842-197.994-45.591-253.619s-73.403-99.279-129.028-129.028c-55.625-29.748-112.665-45.591-253.619-45.591h-167.525c-140.954 0-197.994 15.842-253.619 45.591s-99.279 73.403-129.028 129.028c-29.748 55.625-45.591 112.665-45.591 253.619v167.525c0 140.954 15.842 197.994 45.591 253.619s73.403 99.279 129.028 129.028c55.625 29.748 112.665 45.591 253.619 45.591zM428.237 874.667c-116.483 0-164.883-9.571-213.376-35.505-40.754-21.795-72.227-53.269-94.023-94.023-25.934-48.493-35.505-96.893-35.505-213.376v-167.525c0-116.483 9.571-164.883 35.505-213.376 21.795-40.754 53.269-72.227 94.023-94.023 48.493-25.934 96.893-35.505 213.376-35.505h167.525c116.483 0 164.883 9.571 213.376 35.505 40.754 21.795 72.227 53.269 94.023 94.023 25.934 48.493 35.505 96.893 35.505 213.376v167.525c0 116.483-9.571 164.883-35.505 213.376-21.795 40.754-53.269 72.227-94.023 94.023-48.493 25.934-96.893 35.505-213.376 35.505h-167.525zM785.067 533.333h-546.133v85.333h546.133v-85.333zM785.067 234.667h-546.133v213.333h546.133v-213.333zM785.067 704h-546.133c-37.888 0-68.267-30.853-68.267-69.333v-416c0-38.292 30.564-69.333 68.267-69.333h546.133c37.703 0 68.267 31.042 68.267 69.333v416c0 38.48-30.72 69.333-68.267 69.333z" />
<glyph unicode="&#xe910;" glyph-name="Bond-Number" d="M428.237 960h167.525c140.954 0 197.994-15.842 253.619-45.591s99.279-73.403 129.028-129.028c29.748-55.625 45.591-112.665 45.591-253.619v-167.525c0-140.954-15.842-197.994-45.591-253.619s-73.403-99.279-129.028-129.028c-55.625-29.748-112.665-45.591-253.619-45.591h-167.525c-140.954 0-197.994 15.842-253.619 45.591s-99.279 73.403-129.028 129.028c-29.748 55.625-45.591 112.665-45.591 253.619v167.525c0 140.954 15.842 197.994 45.591 253.619s73.403 99.279 129.028 129.028c55.625 29.748 112.665 45.591 253.619 45.591zM428.237 874.667c-116.483 0-164.883-9.571-213.376-35.505-40.754-21.795-72.227-53.269-94.023-94.023-25.934-48.493-35.505-96.893-35.505-213.376v-167.525c0-116.483 9.571-164.883 35.505-213.376 21.795-40.754 53.269-72.227 94.023-94.023 48.493-25.934 96.893-35.505 213.376-35.505h167.525c116.483 0 164.883 9.571 213.376 35.505 40.754 21.795 72.227 53.269 94.023 94.023 25.934 48.493 35.505 96.893 35.505 213.376v167.525c0 116.483-9.571 164.883-35.505 213.376-21.795 40.754-53.269 72.227-94.023 94.023-48.493 25.934-96.893 35.505-213.376 35.505h-167.525zM256 234.667v341.333h-85.333v85.333h170.667v-426.667h-85.333zM853.333 320c0-47.36-32-85.333-71.111-85.333h-142.222v85.333h142.222v85.333h-71.111v85.333h71.111v85.333h-142.222v85.333h142.222c39.274 0 71.111-38.205 71.111-85.333v-64c0-35.346-23.878-64-53.333-64 29.455 0 53.333-28.654 53.333-64v-64zM597.333 320v-85.333h-213.333v170.667c0 47.36 32 85.333 71.111 85.333h71.111v85.333h-142.222v85.333h142.222c39.274 0 71.111-38.205 71.111-85.333v-85.333c0-47.36-32-85.333-71.111-85.333h-71.111v-85.333h142.222z" />
<glyph unicode="&#xe911;" glyph-name="Consultants" d="M850.74 85.154c21.226 18.176 38.732 40.111 52.421 65.707 25.934 48.493 35.505 96.893 35.505 213.376v167.525c0 116.483-9.571 164.883-35.505 213.376-21.795 40.754-53.269 72.227-94.023 94.023-48.493 25.934-96.893 35.505-213.376 35.505h-167.525c-116.483 0-164.883-9.571-213.376-35.505-40.754-21.795-72.227-53.269-94.023-94.023-25.934-48.493-35.505-96.893-35.505-213.376v-167.525c0-116.483 9.571-164.883 35.505-213.376 13.689-25.596 31.196-47.531 52.421-65.707 20.821 84.302 164.48 149.513 338.74 149.513s317.919-65.21 338.74-149.513zM428.237 960h167.525c140.954 0 197.994-15.842 253.619-45.591s99.279-73.403 129.028-129.028c29.748-55.625 45.591-112.665 45.591-253.619v-167.525c0-140.954-15.842-197.994-45.591-253.619s-73.403-99.279-129.028-129.028c-55.625-29.748-112.665-45.591-253.619-45.591h-167.525c-140.954 0-197.994 15.842-253.619 45.591s-99.279 73.403-129.028 129.028c-29.748 55.625-45.591 112.665-45.591 253.619v167.525c0 140.954 15.842 197.994 45.591 253.619s73.403 99.279 129.028 129.028c55.625 29.748 112.665 45.591 253.619 45.591zM341.333 490.667c0-94.257 76.41-170.667 170.667-170.667s170.667 76.41 170.667 170.667h-341.333zM490.667 789.333c-12.8 0-21.333-8.96-21.333-21.333v-128h-42.667v106.667c0 0-96-36.693-96-160 0 0-32-5.973-32-53.333h426.667c-2.133 47.36-32 53.333-32 53.333 0 123.307-96 160-96 160v-106.667h-42.667v128c0 12.373-8.107 21.333-21.333 21.333h-42.667z" />
<glyph unicode="&#xe912;" glyph-name="Financials" d="M428.237 960h167.525c140.954 0 197.994-15.842 253.619-45.591s99.279-73.403 129.028-129.028c29.748-55.625 45.591-112.665 45.591-253.619v-167.525c0-140.954-15.842-197.994-45.591-253.619s-73.403-99.279-129.028-129.028c-55.625-29.748-112.665-45.591-253.619-45.591h-167.525c-140.954 0-197.994 15.842-253.619 45.591s-99.279 73.403-129.028 129.028c-29.748 55.625-45.591 112.665-45.591 253.619v167.525c0 140.954 15.842 197.994 45.591 253.619s73.403 99.279 129.028 129.028c55.625 29.748 112.665 45.591 253.619 45.591zM428.237 874.667c-116.483 0-164.883-9.571-213.376-35.505-40.754-21.795-72.227-53.269-94.023-94.023-25.934-48.493-35.505-96.893-35.505-213.376v-167.525c0-116.483 9.571-164.883 35.505-213.376 21.795-40.754 53.269-72.227 94.023-94.023 48.493-25.934 96.893-35.505 213.376-35.505h167.525c116.483 0 164.883 9.571 213.376 35.505 40.754 21.795 72.227 53.269 94.023 94.023 25.934 48.493 35.505 96.893 35.505 213.376v167.525c0 116.483-9.571 164.883-35.505 213.376-21.795 40.754-53.269 72.227-94.023 94.023-48.493 25.934-96.893 35.505-213.376 35.505h-167.525zM371.491 490.667v-341.333h-85.333v341.333h85.333zM467.571 448h85.333v-298.667h-85.333v298.667zM648.985 618.667h85.333v-469.333h-85.333v469.333zM270.593 586.145l441.029 160.521 14.593-40.094-441.029-160.521-14.593 40.094z" />
<glyph unicode="&#xe913;" glyph-name="Hard-Power-Number" d="M428.237 960h167.525c140.954 0 197.994-15.842 253.619-45.591s99.279-73.403 129.028-129.028c29.748-55.625 45.591-112.665 45.591-253.619v-167.525c0-140.954-15.842-197.994-45.591-253.619s-73.403-99.279-129.028-129.028c-55.625-29.748-112.665-45.591-253.619-45.591h-167.525c-140.954 0-197.994 15.842-253.619 45.591s-99.279 73.403-129.028 129.028c-29.748 55.625-45.591 112.665-45.591 253.619v167.525c0 140.954 15.842 197.994 45.591 253.619s73.403 99.279 129.028 129.028c55.625 29.748 112.665 45.591 253.619 45.591zM428.237 874.667c-116.483 0-164.883-9.571-213.376-35.505-40.754-21.795-72.227-53.269-94.023-94.023-25.934-48.493-35.505-96.893-35.505-213.376v-167.525c0-116.483 9.571-164.883 35.505-213.376 21.795-40.754 53.269-72.227 94.023-94.023 48.493-25.934 96.893-35.505 213.376-35.505h167.525c116.483 0 164.883 9.571 213.376 35.505 40.754 21.795 72.227 53.269 94.023 94.023 25.934 48.493 35.505 96.893 35.505 213.376v167.525c0 116.483-9.571 164.883-35.505 213.376-21.795 40.754-53.269 72.227-94.023 94.023-48.493 25.934-96.893 35.505-213.376 35.505h-167.525zM768 320v341.333h-85.333v85.333h170.667v-426.667h-85.333zM384 405.333c0-47.36-32-85.333-71.111-85.333h-142.222v85.333h142.222v85.333h-71.111v85.333h71.111v85.333h-142.222v85.333h142.222c39.274 0 71.111-38.205 71.111-85.333v-64c0-35.346-23.878-64-53.333-64 29.455 0 53.333-28.654 53.333-64v-64zM640 405.333v-85.333h-213.333v170.667c0 47.36 32 85.333 71.111 85.333h71.111v85.333h-142.222v85.333h142.222c39.274 0 71.111-38.205 71.111-85.333v-85.333c0-47.36-32-85.333-71.111-85.333h-71.111v-85.333h142.222zM170.667 234.667h682.667v-85.333h-682.667v85.333z" />
<glyph unicode="&#xe914;" glyph-name="Job" d="M914.822 175.477c17.205 41.95 23.845 91.738 23.845 188.76v167.525c0 116.483-9.571 164.883-35.505 213.376-21.795 40.754-53.269 72.227-94.023 94.023-48.493 25.934-96.893 35.505-213.376 35.505h-167.525c-116.483 0-164.883-9.571-213.376-35.505-40.754-21.795-72.227-53.269-94.023-94.023-25.934-48.493-35.505-96.893-35.505-213.376v-167.525c0-116.483 9.571-164.883 35.505-213.376 21.795-40.754 53.269-72.227 94.023-94.023 48.493-25.934 96.893-35.505 213.376-35.505h167.525c96.137 0 145.898 6.52 187.611 23.377l-304.419 306.264c-80.171-31.561-174.285-14.027-240.513 52.602-69.714 70.136-87.142 175.341-45.314 259.505l153.371-150.793 104.571 105.205-149.885 150.793c83.657 38.575 188.227 24.548 257.941-45.589 66.228-66.63 83.657-161.314 52.285-241.971l303.411-305.25zM428.237 960h167.525c140.954 0 197.994-15.842 253.619-45.591s99.279-73.403 129.028-129.028c29.748-55.625 45.591-112.665 45.591-253.619v-167.525c0-140.954-15.842-197.994-45.591-253.619s-73.403-99.279-129.028-129.028c-55.625-29.748-112.665-45.591-253.619-45.591h-167.525c-140.954 0-197.994 15.842-253.619 45.591s-99.279 73.403-129.028 129.028c-29.748 55.625-45.591 112.665-45.591 253.619v167.525c0 140.954 15.842 197.994 45.591 253.619s73.403 99.279 129.028 129.028c55.625 29.748 112.665 45.591 253.619 45.591z" />
<glyph unicode="&#xe915;" glyph-name="CloseEndorsement" d="M512 207.719h-273.067c-37.703 0-68.267 30.162-68.267 67.368v404.211c0 37.207 30.564 67.368 68.267 67.368h546.133c37.703 0 68.267-30.162 68.267-67.368v-269.474h-68.267v269.474h-546.133v-404.211h273.067v-67.368zM428.237 960h167.525c140.954 0 197.994-15.842 253.619-45.591s99.279-73.403 129.028-129.028c29.748-55.625 45.591-112.665 45.591-253.619v-167.525c0-140.954-15.842-197.994-45.591-253.619s-73.403-99.279-129.028-129.028c-55.625-29.748-112.665-45.591-253.619-45.591h-167.525c-140.954 0-197.994 15.842-253.619 45.591s-99.279 73.403-129.028 129.028c-29.748 55.625-45.591 112.665-45.591 253.619v167.525c0 140.954 15.842 197.994 45.591 253.619s73.403 99.279 129.028 129.028c55.625 29.748 112.665 45.591 253.619 45.591zM428.237 874.667c-116.483 0-164.883-9.571-213.376-35.505-40.754-21.795-72.227-53.269-94.023-94.023-25.934-48.493-35.505-96.893-35.505-213.376v-167.525c0-116.483 9.571-164.883 35.505-213.376 21.795-40.754 53.269-72.227 94.023-94.023 48.493-25.934 96.893-35.505 213.376-35.505h167.525c116.483 0 164.883 9.571 213.376 35.505 40.754 21.795 72.227 53.269 94.023 94.023 25.934 48.493 35.505 96.893 35.505 213.376v167.525c0 116.483-9.571 164.883-35.505 213.376-21.795 40.754-53.269 72.227-94.023 94.023-48.493 25.934-96.893 35.505-213.376 35.505h-167.525zM307.2 578.246h409.6v-67.368h-409.6v67.368zM307.2 443.509h170.667v-67.368h-170.667v67.368zM554.667 310.735l49.61 51.931 74.066-77.897 74.066 77.897 49.61-51.931-74.416-77.531 74.416-77.531-49.61-51.931-74.066 77.897-74.066-77.897-49.61 51.931 74.416 77.531-74.416 77.531z" />
<glyph unicode="&#xe916;" glyph-name="Complete" d="M512 207.719h-273.067c-37.703 0-68.267 30.162-68.267 67.368v404.211c0 37.207 30.564 67.368 68.267 67.368h546.133c37.703 0 68.267-30.162 68.267-67.368v-269.474h-68.267v269.474h-546.133v-404.211h273.067v-67.368zM428.237 960h167.525c140.954 0 197.994-15.842 253.619-45.591s99.279-73.403 129.028-129.028c29.748-55.625 45.591-112.665 45.591-253.619v-167.525c0-140.954-15.842-197.994-45.591-253.619s-73.403-99.279-129.028-129.028c-55.625-29.748-112.665-45.591-253.619-45.591h-167.525c-140.954 0-197.994 15.842-253.619 45.591s-99.279 73.403-129.028 129.028c-29.748 55.625-45.591 112.665-45.591 253.619v167.525c0 140.954 15.842 197.994 45.591 253.619s73.403 99.279 129.028 129.028c55.625 29.748 112.665 45.591 253.619 45.591zM428.237 874.667c-116.483 0-164.883-9.571-213.376-35.505-40.754-21.795-72.227-53.269-94.023-94.023-25.934-48.493-35.505-96.893-35.505-213.376v-167.525c0-116.483 9.571-164.883 35.505-213.376 21.795-40.754 53.269-72.227 94.023-94.023 48.493-25.934 96.893-35.505 213.376-35.505h167.525c116.483 0 164.883 9.571 213.376 35.505 40.754 21.795 72.227 53.269 94.023 94.023 25.934 48.493 35.505 96.893 35.505 213.376v167.525c0 116.483-9.571 164.883-35.505 213.376-21.795 40.754-53.269 72.227-94.023 94.023-48.493 25.934-96.893 35.505-213.376 35.505h-167.525zM307.2 578.246h409.6v-67.368h-409.6v67.368zM307.2 443.509h170.667v-67.368h-170.667v67.368zM853.333 313.436l-175.686-164.103-122.98 114.872 52.706 49.231 70.275-65.641 122.98 114.872 52.706-49.231z" />
<glyph unicode="&#xe917;" glyph-name="Reinstate" d="M923.398 36.2c0.025-0.182 0.050-0.364 0.075-0.546-0.257-0.049-0.515-0.099-0.774-0.15-21.374-21.197-45.891-39.246-73.317-53.914-55.625-29.748-112.665-45.591-253.619-45.591h-167.525c-140.954 0-197.994 15.842-253.619 45.591s-99.279 73.403-129.028 129.028c-29.748 55.625-45.591 112.665-45.591 253.619v167.525c0 140.954 15.842 197.994 45.591 253.619s73.403 99.279 129.028 129.028c55.625 29.748 112.665 45.591 253.619 45.591h167.525c140.954 0 197.994-15.842 253.619-45.591s99.279-73.403 129.028-129.028c29.748-55.625 45.591-112.665 45.591-253.619v-167.525c0-140.954-15.842-197.994-45.591-253.619-14.92-27.899-33.339-52.786-55.011-74.418zM894.412 135.819c3.071 4.865 5.988 9.879 8.75 15.043 25.934 48.493 35.505 96.893 35.505 213.376v167.525c0 116.483-9.571 164.883-35.505 213.376-21.795 40.754-53.269 72.227-94.023 94.023-48.493 25.934-96.893 35.505-213.376 35.505h-167.525c-116.483 0-164.883-9.571-213.376-35.505-40.754-21.795-72.227-53.269-94.023-94.023-25.934-48.493-35.505-96.893-35.505-213.376v-167.525c0-116.483 9.571-164.883 35.505-213.376 21.795-40.754 53.269-72.227 94.023-94.023 48.493-25.934 96.893-35.505 213.376-35.505h167.525c116.483 0 164.883 9.571 213.376 35.505 5.469 2.925 10.771 6.024 15.905 9.297-20.030 59.31-64.351 105.922-119.341 130.467l-86.734-107.264-21.636 247.298 238.47 20.863-70.471-87.152c57.512-31.584 101.521-76.423 129.079-134.529zM512 207.719h-273.067c-37.703 0-68.267 30.162-68.267 67.368v404.211c0 37.207 30.564 67.368 68.267 67.368h546.133c37.703 0 68.267-30.162 68.267-67.368v-269.474h-68.267v269.474h-546.133v-404.211h273.067v-67.368zM307.2 578.246h409.6v-67.368h-409.6v67.368zM307.2 443.509h170.667v-67.368h-170.667v67.368z" />
<glyph unicode="&#xe918;" glyph-name="Checked" d="M810.667 832c46.933 0 85.333-38.4 85.333-85.333v-597.333c0-46.933-38.4-85.333-85.333-85.333h-597.333c-46.933 0-85.333 38.4-85.333 85.333v597.333c0 46.933 38.4 85.333 85.333 85.333h597.333zM767.573 576l-60.16 60.587-281.173-281.173-110.080 109.653-60.587-60.16 170.667-170.24 341.333 341.333z" />
<glyph unicode="&#xe919;" glyph-name="Unchecked" d="M810.667 746.667v-597.333h-597.333v597.333h597.333zM810.667 832h-597.333c-46.933 0-85.333-38.4-85.333-85.333v-597.333c0-46.933 38.4-85.333 85.333-85.333h597.333c46.933 0 85.333 38.4 85.333 85.333v597.333c0 46.933-38.4 85.333-85.333 85.333z" />
<glyph unicode="&#xe91a;" glyph-name="Account-Avatar" d="M512 874.667c-235.52 0-426.667-191.147-426.667-426.667s191.147-426.667 426.667-426.667c235.52 0 426.667 191.147 426.667 426.667s-191.147 426.667-426.667 426.667zM301.653 180.053c18.347 38.4 130.133 75.947 210.347 75.947s192.427-37.547 210.347-75.947c-58.027-46.080-130.987-73.387-210.347-73.387s-152.32 27.307-210.347 73.387zM783.36 241.92c-61.013 74.24-209.067 99.413-271.36 99.413s-210.347-25.173-271.36-99.413c-43.52 57.173-69.973 128.427-69.973 206.080 0 188.16 153.173 341.333 341.333 341.333s341.333-153.173 341.333-341.333c0-77.653-26.453-148.907-69.973-206.080v0zM512 704c-82.773 0-149.333-66.56-149.333-149.333s66.56-149.333 149.333-149.333c82.773 0 149.333 66.56 149.333 149.333s-66.56 149.333-149.333 149.333zM512 490.667c-35.413 0-64 28.587-64 64s28.587 64 64 64c35.413 0 64-28.587 64-64s-28.587-64-64-64z" />
<glyph unicode="&#xe91b;" glyph-name="Account-Lifecycle" d="M213.333 832h597.333c47.128 0 85.333-38.205 85.333-85.333v-597.333c0-47.128-38.205-85.333-85.333-85.333h-597.333c-47.128 0-85.333 38.205-85.333 85.333v597.333c0 47.128 38.205 85.333 85.333 85.333zM213.333 746.667v-597.333h597.333v597.333h-597.333zM469.333 661.333h256v-85.333h-256v85.333zM469.333 490.667h256v-85.333h-256v85.333zM469.333 320h256v-85.333h-256v85.333zM298.667 490.667h85.333v-85.333h-85.333v85.333zM298.667 320h85.333v-85.333h-85.333v85.333zM298.667 661.333h85.333v-85.333h-85.333v85.333z" />
<glyph unicode="&#xe91c;" glyph-name="Agency-Portal" d="M810.667 362.667v-170.667h-85.333v170.667h85.333zM298.667 362.667v-170.667h-42.667c-23.467 0-42.667 19.2-42.667 42.667v128h85.333zM512 917.333c-212.053 0-384-171.947-384-384v-298.667c0-70.827 57.173-128 128-128h128v341.333h-170.667v85.333c0 165.12 133.547 298.667 298.667 298.667s298.667-133.547 298.667-298.667v-85.333h-170.667v-341.333h170.667v-42.667h-298.667v-85.333h256c70.827 0 128 57.173 128 128v426.667c0 212.053-171.947 384-384 384z" />
<glyph unicode="&#xe91d;" glyph-name="CheckMark" d="M384 149.333l-298.667 256 85.333 85.333 213.333-170.667 469.333 469.333 85.333-85.333z" />
<glyph unicode="&#xe91f;" glyph-name="Breadcrumb-Globe" d="M763.733 218.027c-11.093 34.133-43.093 59.307-81.067 59.307h-42.667v128c0 23.564-19.103 42.667-42.667 42.667h-256v85.333h85.333c23.564 0 42.667 19.103 42.667 42.667v85.333h85.333c47.128 0 85.333 38.205 85.333 85.333v17.493c125.013-50.347 213.333-172.8 213.333-316.16 0-88.747-34.133-169.387-89.6-229.973v0zM469.333 109.653c-168.533 20.907-298.667 164.267-298.667 338.347 0 26.453 3.413 52.053 8.96 76.373l204.373-204.373v-42.667c0-47.128 38.205-85.333 85.333-85.333v-82.347zM512 874.667c-235.641 0-426.667-191.025-426.667-426.667 0-113.159 44.952-221.683 124.968-301.699s188.54-124.968 301.699-124.968c113.159 0 221.683 44.952 301.699 124.968s124.968 188.54 124.968 301.699c0 113.159-44.952 221.683-124.968 301.699s-188.54 124.968-301.699 124.968z" />
<glyph unicode="&#xe920;" glyph-name="Business-Admin" d="M597.333 670.316v80.842h-170.667v-80.842h170.667zM170.667 589.474v-444.632h682.667v444.632h-682.667zM853.333 670.316c47.36 0 85.333-35.975 85.333-80.842v-444.632c0-44.867-37.973-80.842-85.333-80.842h-682.667c-47.36 0-85.333 35.975-85.333 80.842l0.427 444.632c0 44.867 37.547 80.842 84.907 80.842h170.667v80.842c0 44.867 37.973 80.842 85.333 80.842h170.667c47.36 0 85.333-35.975 85.333-80.842v-80.842h170.667z" />
<glyph unicode="&#xe921;" glyph-name="Calendar" d="M810.667 106.667h-597.333v469.333h597.333v-469.333zM682.667 874.667v-85.333h-341.333v85.333h-85.333v-85.333h-42.667c-47.36 0-85.333-37.973-85.333-85.333v-597.333c0-47.128 38.205-85.333 85.333-85.333h597.333c47.128 0 85.333 38.205 85.333 85.333v597.333c0 47.36-38.4 85.333-85.333 85.333h-42.667v85.333h-85.333zM725.333 405.333h-213.333v-213.333h213.333v213.333z" />
<glyph unicode="&#xe922;" glyph-name="Chevron-Left" d="M657.493 643.84l-60.16 60.16-256-256 256-256 60.16 60.16-195.413 195.84z" />
<glyph unicode="&#xe923;" glyph-name="Chevron-Right" d="M426.667 704l-60.16-60.16 195.413-195.84-195.413-195.84 60.16-60.16 256 256z" />
<glyph unicode="&#xe924;" glyph-name="Close" d="M810.667 686.507l-60.16 60.16-238.507-238.507-238.507 238.507-60.16-60.16 238.507-238.507-238.507-238.507 60.16-60.16 238.507 238.507 238.507-238.507 60.16 60.16-238.507 238.507z" />
<glyph unicode="&#xe925;" glyph-name="Columns" d="M128 832h341.333v-85.333h-341.333v85.333zM554.667 832h341.333v-85.333h-341.333v85.333zM128 661.333h341.333v-85.333h-341.333v85.333zM554.667 661.333h341.333v-85.333h-341.333v85.333zM128 490.667h341.333v-85.333h-341.333v85.333zM554.667 490.667h341.333v-85.333h-341.333v85.333zM128 320h341.333v-85.333h-341.333v85.333zM554.667 320h341.333v-85.333h-341.333v85.333zM128 149.333h341.333v-85.333h-341.333v85.333zM554.667 149.333h341.333v-85.333h-341.333v85.333z" />
<glyph unicode="&#xe926;" glyph-name="Expand-Less" d="M512 618.667l-256-256 60.16-60.16 195.84 195.413 195.84-195.413 60.16 60.16z" />
<glyph unicode="&#xe927;" glyph-name="Expand-More" d="M707.84 593.493l-195.84-195.413-195.84 195.413-60.16-60.16 256-256 256 256z" />
<glyph unicode="&#xe928;" glyph-name="Filter" d="M640 111.787c1.707-12.8-2.56-26.453-12.373-35.413-16.64-16.64-43.52-16.64-60.16 0l-171.093 171.093c-9.813 9.813-14.080 23.040-12.373 35.413v218.453l-204.373 261.547c-14.507 18.347-11.093 45.227 7.253 59.733 8.107 5.973 17.067 9.387 26.453 9.387v0h597.333c9.387 0 18.347-3.413 26.453-9.387 18.347-14.507 21.76-41.387 7.253-59.733l-204.373-261.547v-389.547zM300.373 746.667l168.96-215.893v-235.52l85.333-85.333v321.28l168.96 215.467h-423.253z" />
<glyph unicode="&#xe929;" glyph-name="Icon-Needed" d="M640 746.667h85.333v85.333h-85.333v-85.333zM640 64h85.333v85.333h-85.333v-85.333zM469.333 746.667h85.333v85.333h-85.333v-85.333zM810.667 746.667h85.333v85.333h-85.333v-85.333zM810.667 576h85.333v85.333h-85.333v-85.333zM810.667 64h85.333v85.333h-85.333v-85.333zM810.667 405.333h85.333v85.333h-85.333v-85.333zM810.667 234.667h85.333v85.333h-85.333v-85.333zM128 746.667h85.333v85.333h-85.333v-85.333zM128 576h85.333v85.333h-85.333v-85.333zM128 405.333h85.333v85.333h-85.333v-85.333zM128 234.667h85.333v85.333h-85.333v-85.333zM128 64h85.333v85.333h-85.333v-85.333zM469.333 64h85.333v85.333h-85.333v-85.333zM298.667 64h85.333v85.333h-85.333v-85.333zM298.667 746.667h85.333v85.333h-85.333v-85.333z" />
<glyph unicode="&#xe92a;" glyph-name="Info" d="M469.333 661.333h85.333v-85.333h-85.333v85.333zM469.333 490.667h85.333v-256h-85.333v256zM512 874.667c-235.52 0-426.667-191.147-426.667-426.667s191.147-426.667 426.667-426.667c235.52 0 426.667 191.147 426.667 426.667s-191.147 426.667-426.667 426.667zM512 106.667c-188.16 0-341.333 153.173-341.333 341.333s153.173 341.333 341.333 341.333c188.16 0 341.333-153.173 341.333-341.333s-153.173-341.333-341.333-341.333z" />
<glyph unicode="&#xe92b;" glyph-name="Menu" d="M170.667 746.667h682.667v-85.333h-682.667v85.333zM170.667 490.667h682.667v-85.333h-682.667v85.333zM170.667 234.667h426.667v-85.333h-426.667v85.333z" />
<glyph unicode="&#xe92c;" glyph-name="More-Vertical" d="M512 618.667c46.933 0 85.333 38.4 85.333 85.333s-38.4 85.333-85.333 85.333c-46.933 0-85.333-38.4-85.333-85.333s38.4-85.333 85.333-85.333zM512 533.333c-46.933 0-85.333-38.4-85.333-85.333s38.4-85.333 85.333-85.333c46.933 0 85.333 38.4 85.333 85.333s-38.4 85.333-85.333 85.333zM512 277.333c-46.933 0-85.333-38.4-85.333-85.333s38.4-85.333 85.333-85.333c46.933 0 85.333 38.4 85.333 85.333s-38.4 85.333-85.333 85.333z" />
<glyph unicode="&#xe92d;" glyph-name="My-Workbench" d="M128 832h341.333v-426.667h-341.333v426.667zM213.333 746.667v-256h170.667v256h-170.667zM554.667 490.667v-426.667h341.333v426.667h-341.333zM640 405.333h170.667v-256h-170.667v256zM554.667 832v-256h341.333v256h-341.333zM640 746.667h170.667v-85.333h-170.667v85.333zM128 320h341.333v-256h-341.333v256zM213.333 234.667v-85.333h170.667v85.333h-170.667z" />
<glyph unicode="&#xe92e;" glyph-name="No" d="M256 874.667c-94.257 0-170.667-76.41-170.667-170.667v-512c0-94.257 76.41-170.667 170.667-170.667h512c94.257 0 170.667 76.41 170.667 170.667v512c0 94.257-76.41 170.667-170.667 170.667h-512zM514.196 506.144l-185.583 185.583-60.34-60.34 185.583-185.583-185.583-185.583 60.34-60.34 185.583 185.583 185.583-185.583 60.34 60.34-185.583 185.583 185.583 185.583-60.34 60.34-185.583-185.583zM256 789.333h512c47.128 0 85.333-38.205 85.333-85.333v-512c0-47.128-38.205-85.333-85.333-85.333h-512c-47.128 0-85.333 38.205-85.333 85.333v512c0 47.128 38.205 85.333 85.333 85.333z" />
<glyph unicode="&#xe92f;" glyph-name="Radio-Checked" d="M512 874.667c-235.52 0-426.667-191.147-426.667-426.667s191.147-426.667 426.667-426.667c235.52 0 426.667 191.147 426.667 426.667s-191.147 426.667-426.667 426.667zM512 106.667c-188.587 0-341.333 152.747-341.333 341.333s152.747 341.333 341.333 341.333c188.587 0 341.333-152.747 341.333-341.333s-152.747-341.333-341.333-341.333zM512 234.667c117.821 0 213.333 95.513 213.333 213.333s-95.513 213.333-213.333 213.333c-117.821 0-213.333-95.513-213.333-213.333s95.513-213.333 213.333-213.333z" />
<glyph unicode="&#xe930;" glyph-name="Radio-Unchecked" d="M512 874.667c-235.52 0-426.667-191.147-426.667-426.667s191.147-426.667 426.667-426.667c235.52 0 426.667 191.147 426.667 426.667s-191.147 426.667-426.667 426.667zM512 106.667c-188.587 0-341.333 152.747-341.333 341.333s152.747 341.333 341.333 341.333c188.587 0 341.333-152.747 341.333-341.333s-152.747-341.333-341.333-341.333z" />
<glyph unicode="&#xe931;" glyph-name="Search" d="M661.333 362.667h-33.707l-11.947 11.52c41.813 48.64 66.987 111.787 66.987 180.48 0 153.173-124.16 277.333-277.333 277.333s-277.333-124.16-277.333-277.333c0-153.173 124.16-277.333 277.333-277.333 68.693 0 131.84 25.173 180.48 66.987l11.52-11.947v-33.707l213.333-212.907 63.573 63.573-212.907 213.333zM405.333 362.667c-106.24 0-192 85.76-192 192s85.76 192 192 192c106.24 0 192-85.76 192-192s-85.76-192-192-192z" />
<glyph unicode="&#xe932;" glyph-name="Sort-Ascending" d="M170.667 448l60.16-60.16 238.507 238.080v-519.253h85.333v519.253l238.080-238.507 60.587 60.587-341.333 341.333z" />
<glyph unicode="&#xe933;" glyph-name="Sort-Descending" d="M853.333 448l-60.16 60.16-238.507-238.080v519.253h-85.333v-519.253l-238.080 238.507-60.587-60.587 341.333-341.333z" />
<glyph unicode="&#xe934;" glyph-name="System-Admin" d="M829.013 406.187c1.707 13.653 2.987 27.307 2.987 41.813s-1.28 28.16-2.987 41.813l90.027 70.4c8.107 6.4 10.24 17.92 5.12 27.307l-85.333 147.627c-3.84 6.827-11.093 10.667-18.773 10.667-2.56 0-5.12-0.427-7.253-1.28l-106.24-42.667c-22.187 17.067-46.080 31.147-72.107 41.813l-16.213 113.067c-1.28 10.24-10.24 17.92-20.907 17.92h-170.667c-10.667 0-19.627-7.68-20.907-17.92l-16.213-113.067c-26.027-10.667-49.92-25.173-72.107-41.813l-106.24 42.667c-2.56 0.853-5.12 1.28-7.68 1.28-7.253 0-14.507-3.84-18.347-10.667l-85.333-147.627c-5.547-9.387-2.987-20.907 5.12-27.307l90.027-70.4c-1.707-13.653-2.987-27.733-2.987-41.813s1.28-28.16 2.987-41.813l-90.027-70.4c-8.107-6.4-10.24-17.92-5.12-27.307l85.333-147.627c3.84-6.827 11.093-10.667 18.773-10.667 2.56 0 5.12 0.427 7.253 1.28l106.24 42.667c22.187-17.067 46.080-31.147 72.107-41.813l16.213-113.067c1.28-10.24 10.24-17.92 20.907-17.92h170.667c10.667 0 19.627 7.68 20.907 17.92l16.213 113.067c26.027 10.667 49.92 25.173 72.107 41.813l106.24-42.667c2.56-0.853 5.12-1.28 7.68-1.28 7.253 0 14.507 3.84 18.347 10.667l85.333 147.627c5.12 9.387 2.987 20.907-5.12 27.307l-90.027 70.4zM744.533 479.147c1.707-13.227 2.133-22.187 2.133-31.147s-0.853-18.347-2.133-31.147l-5.973-48.213 37.973-29.867 46.080-35.84-29.867-51.627-54.187 21.76-44.373 17.92-38.4-29.013c-18.347-13.653-35.84-23.893-53.333-31.147l-45.227-18.347-6.827-48.213-8.533-57.6h-59.733l-8.107 57.6-6.827 48.213-45.227 18.347c-18.347 7.68-35.413 17.493-52.48 30.293l-38.827 29.867-45.227-18.347-54.187-21.76-29.867 51.627 46.080 35.84 37.973 29.867-5.973 48.213c-1.28 13.227-2.133 23.040-2.133 31.573s0.853 18.347 2.133 31.147l5.973 48.213-37.973 29.867-46.080 35.84 29.867 51.627 54.187-21.76 44.373-17.92 38.4 29.013c18.347 13.653 35.84 23.893 53.333 31.147l45.227 18.347 6.827 48.213 8.533 57.6h59.307l8.107-57.6 6.827-48.213 45.227-18.347c18.347-7.68 35.413-17.493 52.48-30.293l38.827-29.867 45.227 18.347 54.187 21.76 29.867-51.627-45.653-36.267-37.973-29.867 5.973-48.213zM512 618.667c-94.293 0-170.667-76.373-170.667-170.667s76.373-170.667 170.667-170.667c94.293 0 170.667 76.373 170.667 170.667s-76.373 170.667-170.667 170.667zM512 362.667c-46.933 0-85.333 38.4-85.333 85.333s38.4 85.333 85.333 85.333c46.933 0 85.333-38.4 85.333-85.333s-38.4-85.333-85.333-85.333z" />
<glyph unicode="&#xe935;" glyph-name="Trash" d="M384 832v-42.667h-213.333v-85.333h42.667v-554.667c0-47.128 38.205-85.333 85.333-85.333h426.667c47.128 0 85.333 38.205 85.333 85.333v554.667h42.667v85.333h-213.333v42.667h-256zM298.667 704h426.667v-554.667h-426.667v554.667zM384 618.667v-384h85.333v384h-85.333zM554.667 618.667v-384h85.333v384h-85.333z" />
<glyph unicode="&#xe936;" glyph-name="View" d="M512 576c-70.692 0-128-57.308-128-128s57.308-128 128-128c70.692 0 128 57.308 128 128s-57.308 128-128 128v0zM512 234.667c-117.821 0-213.333 95.513-213.333 213.333s95.513 213.333 213.333 213.333c117.821 0 213.333-95.513 213.333-213.333s-95.513-213.333-213.333-213.333v0zM512 768c-213.333 0-395.52-132.693-469.333-320 73.813-187.307 256-320 469.333-320s395.52 132.693 469.333 320c-73.813 187.307-256 320-469.333 320z" />
<glyph unicode="&#xe937;" glyph-name="Warning" d="M85.333 64h853.333l-426.667 768-426.667-768zM550.788 185.263h-77.576v80.842h77.576v-80.842zM550.788 346.947h-77.576v161.684h77.576v-161.684z" />
<glyph unicode="&#xe938;" glyph-name="Yes" d="M256 874.667h512c94.257 0 170.667-76.41 170.667-170.667v-512c0-94.257-76.41-170.667-170.667-170.667h-512c-94.257 0-170.667 76.41-170.667 170.667v512c0 94.257 76.41 170.667 170.667 170.667zM256 789.333c-47.128 0-85.333-38.205-85.333-85.333v-512c0-47.128 38.205-85.333 85.333-85.333h512c47.128 0 85.333 38.205 85.333 85.333v512c0 47.128-38.205 85.333-85.333 85.333h-512zM289.312 419.412l-49.114-69.783 193.413-136.125 354.315 407.84-64.419 55.964-303.787-349.679-130.409 91.783z" />
<glyph unicode="&#xe939;" glyph-name="Bond-Amount" d="M512 207.719h-273.067c-37.703 0-68.267 30.162-68.267 67.368v404.211c0 37.207 30.564 67.368 68.267 67.368h546.133c37.703 0 68.267-30.162 68.267-67.368v-269.474h-68.267v269.474h-546.133v-404.211h273.067v-67.368zM428.237 960h167.525c140.954 0 197.994-15.842 253.619-45.591s99.279-73.403 129.028-129.028c29.748-55.625 45.591-112.665 45.591-253.619v-167.525c0-140.954-15.842-197.994-45.591-253.619s-73.403-99.279-129.028-129.028c-55.625-29.748-112.665-45.591-253.619-45.591h-167.525c-140.954 0-197.994 15.842-253.619 45.591s-99.279 73.403-129.028 129.028c-29.748 55.625-45.591 112.665-45.591 253.619v167.525c0 140.954 15.842 197.994 45.591 253.619s73.403 99.279 129.028 129.028c55.625 29.748 112.665 45.591 253.619 45.591zM428.237 874.667c-116.483 0-164.883-9.571-213.376-35.505-40.754-21.795-72.227-53.269-94.023-94.023-25.934-48.493-35.505-96.893-35.505-213.376v-167.525c0-116.483 9.571-164.883 35.505-213.376 21.795-40.754 53.269-72.227 94.023-94.023 48.493-25.934 96.893-35.505 213.376-35.505h167.525c116.483 0 164.883 9.571 213.376 35.505 40.754 21.795 72.227 53.269 94.023 94.023 25.934 48.493 35.505 96.893 35.505 213.376v167.525c0 116.483-9.571 164.883-35.505 213.376-21.795 40.754-53.269 72.227-94.023 94.023-48.493 25.934-96.893 35.505-213.376 35.505h-167.525zM853.333 234.728l-33.125-34.003 4.616-45.011-49.008-10.030-25.658-38.895-46.158 17.858-46.158-17.98-25.658 38.895-49.008 10.030 4.616 45.133-33.125 34.003 33.125 34.125-4.616 45.011 49.008 9.907 25.658 38.895 46.158-17.858 46.158 17.858 25.658-38.895 49.008-10.030-4.616-45.011 33.125-34.003zM725.333 490.667c0-46.933-28.587-85.333-64-85.333s-64 38.4-64 85.333v42.667c0 46.933 28.587 85.333 64 85.333s64-38.4 64-85.333v-42.667zM661.333 576c-11.782 0-21.333-9.551-21.333-21.333v-85.333c0-11.782 9.551-21.333 21.333-21.333s21.333 9.551 21.333 21.333v85.333c0 11.782-9.551 21.333-21.333 21.333zM554.667 490.667c0-46.933-28.587-85.333-64-85.333s-64 38.4-64 85.333v42.667c0 46.933 28.587 85.333 64 85.333s64-38.4 64-85.333v-42.667zM490.667 576c-11.782 0-21.333-9.551-21.333-21.333v-85.333c0-11.782 9.551-21.333 21.333-21.333s21.333 9.551 21.333 21.333v85.333c0 11.782-9.551 21.333-21.333 21.333zM341.333 405.333v170.667l-42.667-21.333v42.667l42.667 21.333h42.667v-213.333h-42.667z" />
<glyph unicode="&#xe93a;" glyph-name="Bond-Liability" d="M428.237 960h167.525c140.954 0 197.994-15.842 253.619-45.591s99.279-73.403 129.028-129.028c29.748-55.625 45.591-112.665 45.591-253.619v-167.525c0-140.954-15.842-197.994-45.591-253.619s-73.403-99.279-129.028-129.028c-55.625-29.748-112.665-45.591-253.619-45.591h-167.525c-140.954 0-197.994 15.842-253.619 45.591s-99.279 73.403-129.028 129.028c-29.748 55.625-45.591 112.665-45.591 253.619v167.525c0 140.954 15.842 197.994 45.591 253.619s73.403 99.279 129.028 129.028c55.625 29.748 112.665 45.591 253.619 45.591zM428.237 874.667c-116.483 0-164.883-9.571-213.376-35.505-40.754-21.795-72.227-53.269-94.023-94.023-25.934-48.493-35.505-96.893-35.505-213.376v-167.525c0-116.483 9.571-164.883 35.505-213.376 21.795-40.754 53.269-72.227 94.023-94.023 48.493-25.934 96.893-35.505 213.376-35.505h167.525c116.483 0 164.883 9.571 213.376 35.505 40.754 21.795 72.227 53.269 94.023 94.023 25.934 48.493 35.505 96.893 35.505 213.376v167.525c0 116.483-9.571 164.883-35.505 213.376-21.795 40.754-53.269 72.227-94.023 94.023-48.493 25.934-96.893 35.505-213.376 35.505h-167.525zM170.667 234.667l341.333 512 341.333-512h-682.667zM512 638.877l-233.658-350.316h467.316l-233.658 350.316zM511.88 522.667l128.275-184.702h-256l127.725 184.702z" />
<glyph unicode="&#xe93c;" glyph-name="Cancel" d="M512 207.719h-273.067c-37.703 0-68.267 30.162-68.267 67.368v404.211c0 37.207 30.564 67.368 68.267 67.368h546.133c37.703 0 68.267-30.162 68.267-67.368v-269.474h-68.267v269.474h-546.133v-404.211h273.067v-67.368zM428.237 960h167.525c140.954 0 197.994-15.842 253.619-45.591s99.279-73.403 129.028-129.028c29.748-55.625 45.591-112.665 45.591-253.619v-167.525c0-140.954-15.842-197.994-45.591-253.619s-73.403-99.279-129.028-129.028c-55.625-29.748-112.665-45.591-253.619-45.591h-167.525c-140.954 0-197.994 15.842-253.619 45.591s-99.279 73.403-129.028 129.028c-29.748 55.625-45.591 112.665-45.591 253.619v167.525c0 140.954 15.842 197.994 45.591 253.619s73.403 99.279 129.028 129.028c55.625 29.748 112.665 45.591 253.619 45.591zM428.237 874.667c-116.483 0-164.883-9.571-213.376-35.505-40.754-21.795-72.227-53.269-94.023-94.023-25.934-48.493-35.505-96.893-35.505-213.376v-167.525c0-116.483 9.571-164.883 35.505-213.376 21.795-40.754 53.269-72.227 94.023-94.023 48.493-25.934 96.893-35.505 213.376-35.505h167.525c116.483 0 164.883 9.571 213.376 35.505 40.754 21.795 72.227 53.269 94.023 94.023 25.934 48.493 35.505 96.893 35.505 213.376v167.525c0 116.483-9.571 164.883-35.505 213.376-21.795 40.754-53.269 72.227-94.023 94.023-48.493 25.934-96.893 35.505-213.376 35.505h-167.525zM307.2 578.246h409.6v-67.368h-409.6v67.368zM307.2 443.509h170.667v-67.368h-170.667v67.368zM853.333 213.333c0-82.963-66.37-149.333-149.333-149.333s-149.333 66.37-149.333 149.333c0 82.963 66.37 149.333 149.333 149.333s149.333-66.37 149.333-149.333zM640 304.071l154.738-154.738c10.24 15.929 15.929 35.65 15.929 56.889 0 62.838-50.94 113.778-113.778 113.778-21.239 0-40.96-5.689-56.889-15.929zM711.111 106.667c21.239 0 40.96 5.689 56.889 15.929l-154.738 154.738c-10.24-15.929-15.929-35.65-15.929-56.889 0-62.838 50.94-113.778 113.778-113.778z" />
<glyph unicode="&#xe93d;" glyph-name="Contract-Amount" d="M428.237 960h167.525c140.954 0 197.994-15.842 253.619-45.591s99.279-73.403 129.028-129.028c29.748-55.625 45.591-112.665 45.591-253.619v-167.525c0-140.954-15.842-197.994-45.591-253.619s-73.403-99.279-129.028-129.028c-55.625-29.748-112.665-45.591-253.619-45.591h-167.525c-140.954 0-197.994 15.842-253.619 45.591s-99.279 73.403-129.028 129.028c-29.748 55.625-45.591 112.665-45.591 253.619v167.525c0 140.954 15.842 197.994 45.591 253.619s73.403 99.279 129.028 129.028c55.625 29.748 112.665 45.591 253.619 45.591zM428.237 874.667c-116.483 0-164.883-9.571-213.376-35.505-40.754-21.795-72.227-53.269-94.023-94.023-25.934-48.493-35.505-96.893-35.505-213.376v-167.525c0-116.483 9.571-164.883 35.505-213.376 21.795-40.754 53.269-72.227 94.023-94.023 48.493-25.934 96.893-35.505 213.376-35.505h167.525c116.483 0 164.883 9.571 213.376 35.505 40.754 21.795 72.227 53.269 94.023 94.023 25.934 48.493 35.505 96.893 35.505 213.376v167.525c0 116.483-9.571 164.883-35.505 213.376-21.795 40.754-53.269 72.227-94.023 94.023-48.493 25.934-96.893 35.505-213.376 35.505h-167.525zM782.372 612.534c-10.925-11.281-21.528-22.231-21.849-33.181-0.964-10.618 9.961-21.567 20.242-31.853 15.423-16.59 30.524-31.522 29.882-47.78s-17.029-33.181-33.416-49.771l-132.701-137.368-45.626 47.116 136.556 140.686-30.846 31.853-45.626-46.785-120.491 124.427 123.383 127.082c12.531 12.94 33.416 12.94 45.305 0l75.186-77.643c12.531-12.277 12.531-33.844 0-46.785zM213.333 273.76l307.171 317.538 120.491-124.427-307.171-317.538h-120.491v124.427z" />
<glyph unicode="&#xe93e;" glyph-name="Convert-To-Bid" d="M576 21.333h19.763c116.483 0 164.883 9.571 213.376 35.505 40.754 21.795 72.227 53.269 94.023 94.023 25.934 48.493 35.505 96.893 35.505 213.376v167.525c0 116.483-9.571 164.883-35.505 213.376-21.795 40.754-53.269 72.227-94.023 94.023-48.493 25.934-96.893 35.505-213.376 35.505h-167.525c-116.483 0-164.883-9.571-213.376-35.505-40.754-21.795-72.227-53.269-94.023-94.023-25.934-48.493-35.505-96.893-35.505-213.376v-167.525c0-116.483 9.571-164.883 35.505-213.376 21.795-40.754 53.269-72.227 94.023-94.023 48.493-25.934 96.893-35.505 213.376-35.505h19.763v177.54c-134.194 29.298-234.667 148.812-234.667 291.794 0 164.949 133.718 298.667 298.667 298.667s298.667-133.718 298.667-298.667c0-142.981-100.472-262.496-234.667-291.794v-177.54zM428.237 960h167.525c140.954 0 197.994-15.842 253.619-45.591s99.279-73.403 129.028-129.028c29.748-55.625 45.591-112.665 45.591-253.619v-167.525c0-140.954-15.842-197.994-45.591-253.619s-73.403-99.279-129.028-129.028c-55.625-29.748-112.665-45.591-253.619-45.591h-167.525c-140.954 0-197.994 15.842-253.619 45.591s-99.279 73.403-129.028 129.028c-29.748 55.625-45.591 112.665-45.591 253.619v167.525c0 140.954 15.842 197.994 45.591 253.619s73.403 99.279 129.028 129.028c55.625 29.748 112.665 45.591 253.619 45.591zM682.667 559.59l-60.235 59.077-140.549-137.846-80.314 78.769-60.235-59.077 140.549-137.846 200.784 196.923z" />
<glyph unicode="&#xe940;" glyph-name="Obligee-Bond-Data" d="M853.333 87.41c20.062 17.726 36.701 38.905 49.828 63.452 25.934 48.493 35.505 96.893 35.505 213.376v167.525c0 116.483-9.571 164.883-35.505 213.376-21.795 40.754-53.269 72.227-94.023 94.023-48.493 25.934-96.893 35.505-213.376 35.505h-167.525c-116.483 0-164.883-9.571-213.376-35.505-40.754-21.795-72.227-53.269-94.023-94.023-25.934-48.493-35.505-96.893-35.505-213.376v-167.525c0-116.483 9.571-164.883 35.505-213.376 13.127-24.546 29.766-45.726 49.828-63.452v241.123c0 42.415 33.96 76.8 75.852 76.8h151.704v38.4c0 42.415 33.96 76.8 75.852 76.8v76.8c0 42.415 33.96 76.8 75.852 76.8h37.926v115.2h75.852v-115.2h37.926c41.892 0 75.852-34.385 75.852-76.8v-76.8c41.892 0 75.852-34.385 75.852-76.8v-356.323zM739.556 31.568v66.565h-75.852v-75.327c30.525 1.551 54.915 4.382 75.852 8.762zM587.852 21.333v76.8h-75.852v-76.8h75.852zM360.296 22.807v75.327h-75.852v-66.565c20.937-4.38 45.327-7.211 75.852-8.762zM428.237 960h167.525c140.954 0 197.994-15.842 253.619-45.591s99.279-73.403 129.028-129.028c29.748-55.625 45.591-112.665 45.591-253.619v-167.525c0-140.954-15.842-197.994-45.591-253.619s-73.403-99.279-129.028-129.028c-55.625-29.748-112.665-45.591-253.619-45.591h-167.525c-140.954 0-197.994 15.842-253.619 45.591s-99.279 73.403-129.028 129.028c-29.748 55.625-45.591 112.665-45.591 253.619v167.525c0 140.954 15.842 197.994 45.591 253.619s73.403 99.279 129.028 129.028c55.625 29.748 112.665 45.591 253.619 45.591zM360.296 174.933v76.8h-75.852v-76.8h75.852zM587.852 174.933v76.8h-75.852v-76.8h75.852zM587.852 328.533v76.8h-75.852v-76.8h75.852zM549.926 520.533h151.704v76.8h-151.704v-76.8zM739.556 174.933v76.8h-75.852v-76.8h75.852zM739.556 328.533v76.8h-75.852v-76.8h75.852z" />
<glyph unicode="&#xe941;" glyph-name="Principal-Bond-Data" d="M853.333 87.41c20.062 17.726 36.701 38.905 49.828 63.452 25.934 48.493 35.505 96.893 35.505 213.376v167.525c0 116.483-9.571 164.883-35.505 213.376-21.795 40.754-53.269 72.227-94.023 94.023-48.493 25.934-96.893 35.505-213.376 35.505h-167.525c-116.483 0-164.883-9.571-213.376-35.505-40.754-21.795-72.227-53.269-94.023-94.023-25.934-48.493-35.505-96.893-35.505-213.376v-167.525c0-116.483 9.571-164.883 35.505-213.376 13.127-24.546 29.766-45.726 49.828-63.452v104.59c0 64 68.693 117.76 170.667 147.627 0-45.227 11.947-150.613 93.44-268.373l34.56 206.080-40.107 80.213c26.453 2.987 54.187 5.12 82.773 5.12s56.32-2.133 82.773-5.12l-40.107-80.213 34.56-206.080c81.493 117.76 93.44 223.147 93.44 268.373 102.4-29.867 170.667-83.627 170.667-147.627v-104.59zM428.237 960h167.525c140.954 0 197.994-15.842 253.619-45.591s99.279-73.403 129.028-129.028c29.748-55.625 45.591-112.665 45.591-253.619v-167.525c0-140.954-15.842-197.994-45.591-253.619s-73.403-99.279-129.028-129.028c-55.625-29.748-112.665-45.591-253.619-45.591h-167.525c-140.954 0-197.994 15.842-253.619 45.591s-99.279 73.403-129.028 129.028c-29.748 55.625-45.591 112.665-45.591 253.619v167.525c0 140.954 15.842 197.994 45.591 253.619s73.403 99.279 129.028 129.028c55.625 29.748 112.665 45.591 253.619 45.591zM512 789.333c94.257 0 170.667-76.41 170.667-170.667s-76.41-170.667-170.667-170.667c-94.257 0-170.667 76.41-170.667 170.667s76.41 170.667 170.667 170.667z" />
<glyph unicode="&#xe942;" glyph-name="Term-Date" d="M428.237 960h167.525c140.954 0 197.994-15.842 253.619-45.591s99.279-73.403 129.028-129.028c29.748-55.625 45.591-112.665 45.591-253.619v-167.525c0-140.954-15.842-197.994-45.591-253.619s-73.403-99.279-129.028-129.028c-55.625-29.748-112.665-45.591-253.619-45.591h-167.525c-140.954 0-197.994 15.842-253.619 45.591s-99.279 73.403-129.028 129.028c-29.748 55.625-45.591 112.665-45.591 253.619v167.525c0 140.954 15.842 197.994 45.591 253.619s73.403 99.279 129.028 129.028c55.625 29.748 112.665 45.591 253.619 45.591zM428.237 874.667c-116.483 0-164.883-9.571-213.376-35.505-40.754-21.795-72.227-53.269-94.023-94.023-25.934-48.493-35.505-96.893-35.505-213.376v-167.525c0-116.483 9.571-164.883 35.505-213.376 21.795-40.754 53.269-72.227 94.023-94.023 48.493-25.934 96.893-35.505 213.376-35.505h167.525c116.483 0 164.883 9.571 213.376 35.505 40.754 21.795 72.227 53.269 94.023 94.023 25.934 48.493 35.505 96.893 35.505 213.376v167.525c0 116.483-9.571 164.883-35.505 213.376-21.795 40.754-53.269 72.227-94.023 94.023-48.493 25.934-96.893 35.505-213.376 35.505h-167.525zM744.296 174.933h-464.593v375.467h464.593v-375.467zM744.296 721.067h-33.185v68.267h-66.37v-68.267h-265.481v68.267h-66.37v-68.267h-33.185c-36.836 0-66.37-30.72-66.37-68.267v-477.867c0-37.703 29.715-68.267 66.37-68.267h464.593c36.655 0 66.37 30.564 66.37 68.267v477.867c0 37.703-29.715 68.267-66.37 68.267v0zM362.667 550.4h42.667v-375.467h-42.667v375.467zM490.667 550.4h42.667v-375.467h-42.667v375.467zM618.667 550.4h42.667v-375.467h-42.667v375.467z" />
<glyph unicode="&#xe943;" glyph-name="View-Bid-Result" d="M576 21.333h19.763c116.483 0 164.883 9.571 213.376 35.505 40.754 21.795 72.227 53.269 94.023 94.023 25.934 48.493 35.505 96.893 35.505 213.376v167.525c0 116.483-9.571 164.883-35.505 213.376-21.795 40.754-53.269 72.227-94.023 94.023-48.493 25.934-96.893 35.505-213.376 35.505h-167.525c-116.483 0-164.883-9.571-213.376-35.505-40.754-21.795-72.227-53.269-94.023-94.023-25.934-48.493-35.505-96.893-35.505-213.376v-167.525c0-116.483 9.571-164.883 35.505-213.376 21.795-40.754 53.269-72.227 94.023-94.023 48.493-25.934 96.893-35.505 213.376-35.505h19.763v177.54c-134.194 29.298-234.667 148.812-234.667 291.794 0 164.949 133.718 298.667 298.667 298.667s298.667-133.718 298.667-298.667c0-142.981-100.472-262.496-234.667-291.794v-177.54zM428.237 960h167.525c140.954 0 197.994-15.842 253.619-45.591s99.279-73.403 129.028-129.028c29.748-55.625 45.591-112.665 45.591-253.619v-167.525c0-140.954-15.842-197.994-45.591-253.619s-73.403-99.279-129.028-129.028c-55.625-29.748-112.665-45.591-253.619-45.591h-167.525c-140.954 0-197.994 15.842-253.619 45.591s-99.279 73.403-129.028 129.028c-29.748 55.625-45.591 112.665-45.591 253.619v167.525c0 140.954 15.842 197.994 45.591 253.619s73.403 99.279 129.028 129.028c55.625 29.748 112.665 45.591 253.619 45.591zM562.729 396.234c0-14.177-4.409-25.438-13.228-33.783s-20.836-12.517-36.053-12.517c-18.329 0-32.378 5.698-42.148 17.094s-14.655 27.771-14.655 49.127h-74.958c0-36.79 9.726-66.266 29.179-88.429s46.903-35.219 82.351-39.167v-53.3h41.24v53.569c32.162 3.41 57.408 14.626 75.737 33.649s27.493 43.788 27.493 74.297c0 16.331-2.421 30.643-7.262 42.936s-11.845 23.24-21.009 32.841c-9.165 9.601-20.404 18.215-33.718 25.842s-30.303 15.748-50.967 24.362c-20.663 8.614-34.799 17.049-42.407 25.304s-11.412 19.202-11.412 32.841c0 14.716 3.891 26.246 11.672 34.591s18.761 12.517 32.94 12.517c14.352 0 25.807-5.339 34.367-16.017s12.839-26.784 12.839-48.32h74.958c0 34.995-8.646 63.484-25.937 85.468s-41.24 35.219-71.846 39.706v58.414h-41.499v-57.607c-30.952-3.23-55.765-14.536-74.44-33.918s-28.012-44.237-28.012-74.566c0-17.587 2.723-32.751 8.17-45.493s13.055-23.823 22.825-33.245c9.77-9.422 21.485-17.767 35.145-25.035s29.914-14.581 48.762-21.939c18.848-7.358 32.205-15.389 40.073-24.093s11.801-20.414 11.801-35.129z" />
<glyph unicode="&#xe944;" glyph-name="Step4" d="M512 21.333c-235.641 0-426.667 191.025-426.667 426.667s191.025 426.667 426.667 426.667c235.641 0 426.667-191.025 426.667-426.667s-191.025-426.667-426.667-426.667zM609.526 401.229v260.104h-83.646l-173.88-274.714 3.724-52.135h171.016v-90.234h82.786v90.234h47.266v66.745h-47.266zM434.5 401.229l86.797 137.786 5.443 9.453v-147.24h-92.24z" />
<glyph unicode="&#xe945;" glyph-name="Activities" d="M777.481 756.148h-158.53c-21.618 59.164-86.85 89.505-144.877 68.267-32.616-11.378-56.889-36.409-69.025-68.267h-158.53c-41.892 0-75.852-33.96-75.852-75.852v-530.963c0-41.892 33.96-75.852 75.852-75.852h530.963c41.892 0 75.852 33.96 75.852 75.852v530.963c0 41.892-33.96 75.852-75.852 75.852v0zM512 756.148c20.946 0 37.926-16.98 37.926-37.926s-16.98-37.926-37.926-37.926c-20.946 0-37.926 16.98-37.926 37.926s16.98 37.926 37.926 37.926v0zM322.37 604.444h379.259v75.852h75.852v-530.963h-530.963v530.963h75.852v-75.852zM701.63 452.741h-379.259v75.852h379.259v-75.852zM625.778 301.037h-303.407v75.852h303.407v-75.852z" />
<glyph unicode="&#xe946;" glyph-name="Bond-Lifecycle" d="M512 149.333h-341.333c-47.128 0-85.333 38.205-85.333 85.333v512c0 47.128 38.205 85.333 85.333 85.333h682.667c47.128 0 85.333-38.205 85.333-85.333v-341.333h-85.333v341.333h-682.667v-512h341.333v-85.333zM256 618.667h512v-85.333h-512v85.333zM256 448h213.333v-85.333h-213.333v85.333zM938.667 192.082l-42.589-45.337 5.935-60.015-63.011-13.373-32.989-51.86-59.345 23.81-59.345-23.973-32.989 51.86-63.011 13.373 5.935 60.178-42.589 45.337 42.589 45.5-5.935 60.015 63.011 13.21 32.989 51.86 59.345-23.81 59.345 23.81 32.989-51.86 63.011-13.373-5.935-60.015 42.589-45.337z" />
<glyph unicode="&#xe947;" glyph-name="Caret" d="M341.333 533.333l170.667-170.667 170.667 170.667z" />
<glyph unicode="&#xe948;" glyph-name="Danger" d="M352.853 832l-224.853-224.853v-318.293l224.853-224.853h318.293l224.853 224.853v318.293l-224.853 224.853zM358.827 661.333l153.173-153.173 153.173 153.173 60.16-60.16-153.173-153.173 153.173-153.173-60.16-60.16-153.173 153.173-153.173-153.173-60.16 60.16 153.173 153.173-153.173 153.173z" />
<glyph unicode="&#xe94a;" glyph-name="Hide" d="M124.121 741.167l49.648 48.166 648.533-634.121-49.261-48.545-119.467 116.812c-44.606-14.412-91.927-21.997-141.576-21.997-193.939 0-359.564 117.95-426.667 284.444 26.764 66.75 69.43 125.535 123.733 172.184l-84.945 83.058zM512 599.704c64.266 0 116.364-50.94 116.364-113.778 0-13.274-2.327-26.169-6.594-37.926l-148.558 145.256c12.024 4.172 25.212 6.447 38.788 6.447v0zM512 770.37c193.939 0 359.564-117.95 426.667-284.444-31.806-78.886-85.721-147.153-155.152-196.836l-55.079 54.234c52.752 35.65 96.194 84.196 125.673 142.601-64 127.431-196.267 208.593-342.109 208.593-42.279 0-83.782-6.827-122.57-18.963l-59.733 58.027c55.855 23.514 117.527 36.788 182.303 36.788v0zM169.891 485.926c64-127.431 196.267-208.593 342.109-208.593 26.764 0 53.139 2.655 77.576 7.964l-88.436 86.85c-55.467 5.689-99.685 48.924-105.503 103.159l-131.879 129.327c-38.4-32.237-70.594-72.439-93.867-118.708z" />
<glyph unicode="&#xe94b;" glyph-name="Notes" d="M587.852 372.148h208.593l-208.593-208.593v208.593zM246.519 106.667h379.259l227.556 227.556v379.259c0 41.892-33.96 75.852-75.852 75.852h-530.963c-42.098 0-75.852-34.133-75.852-75.852v-530.963c0-42.098 33.754-75.852 75.852-75.852v0zM246.519 182.519v530.963h530.963v-265.481h-265.481v-265.481h-265.481z" />
<glyph unicode="&#xe94c;" glyph-name="NotificationActiveFilled" d="M827.733 225.185v-33.185h-614.4v33.185l68.267 66.37v199.111c0 102.874 69.291 193.47 170.667 222.673 0 3.319 0 6.305 0 9.624 0 36.655 30.564 66.37 68.267 66.37s68.267-29.715 68.267-66.37c0-3.319 0-6.305 0-9.624 101.376-29.203 170.667-119.799 170.667-222.673v-199.111l68.267-66.37zM588.8 149.333c0-35.907-30.564-65.016-68.267-65.016s-68.267 29.109-68.267 65.016h136.533zM805.388 768c76.38-78.778 118.772-186.619 118.772-298.667h-73.091c0 91.78-35.084 179.735-97.576 244.364l51.894 54.303zM113.493 469.333c0 112.048 42.393 219.889 118.772 298.667l51.894-54.303c-62.493-64.628-97.576-152.584-97.576-244.364h-73.091z" />
<glyph unicode="&#xe94d;" glyph-name="NotificationNoneFilled" d="M827.733 225.185v-33.185h-614.4v33.185l68.267 66.37v199.111c0 102.874 69.291 193.47 170.667 222.673 0 3.319 0 6.305 0 9.624 0 36.655 30.564 66.37 68.267 66.37s68.267-29.715 68.267-66.37c0-3.319 0-6.305 0-9.624 101.376-29.203 170.667-119.799 170.667-222.673v-199.111l68.267-66.37zM588.8 149.333c0-35.907-30.564-65.016-68.267-65.016s-68.267 29.109-68.267 65.016z" />
<glyph unicode="&#xe94e;" glyph-name="NotificationOutline" d="M683.169 256h-325.271v249.6c0 96 72.282 172.8 162.635 172.8s162.635-76.8 162.635-172.8v-249.6zM755.451 294.4v211.2c0 117.888-77.342 216.576-180.706 242.688v26.112c0 31.812-24.271 57.6-54.212 57.6s-54.212-25.788-54.212-57.6v-26.112c-103.725-26.112-180.706-124.8-180.706-242.688v-211.2l-72.282-76.8v-38.4h614.4v38.4l-72.282 76.8zM520.533 64c39.92 0 72.282 34.385 72.282 76.8h-144.565c0-42.415 32.362-76.8 72.282-76.8z" />
<glyph unicode="&#xe94f;" glyph-name="Tasks" d="M223.179 704h210.051v-210.051h-210.051v210.051zM293.197 633.983v-70.017h70.017v70.017h-70.017zM503.248 633.983h350.085v-70.017h-350.085v70.017zM503.248 353.915h350.085v-70.017h-350.085v70.017zM293.197 178.872l-122.53 122.53 49.362 49.362 73.168-72.818 160.689 160.339 49.362-49.362-210.051-210.051z" />
<glyph unicode="&#xe950;" glyph-name="User-Tasks" d="M384 746.667v-170.667h469.333v170.667h-469.333zM384 533.333v-170.667h469.333v170.667h-469.333zM170.667 576h170.667v170.667h-170.667v-170.667zM170.667 362.667h170.667v170.667h-170.667v-170.667zM384 320v-170.667h469.333v170.667h-469.333zM170.667 149.333h170.667v170.667h-170.667v-170.667z" />
<glyph unicode="&#xe951;" glyph-name="Step5" d="M512 21.333c-235.641 0-426.667 191.025-426.667 426.667s191.025 426.667 426.667 426.667c235.641 0 426.667-191.025 426.667-426.667s-191.025-426.667-426.667-426.667zM373.266 449.354l65.885-16.328 8.021 7.448c12.222 10.313 28.168 15.469 47.839 15.469 21.389 0 37.908-6.302 49.557-18.906s17.474-30.746 17.474-54.427c0-24.636-5.061-43.685-15.182-57.148s-24.54-20.195-43.255-20.195c-16.806 0-30.412 4.822-40.82 14.466s-16.471 23.155-18.19 40.534h-81.927c0.764-23.681 7.4-44.783 19.909-63.307s29.553-32.895 51.133-43.112c21.58-10.217 44.974-15.326 70.182-15.326 28.837 0 53.854 5.872 75.052 17.617s37.478 28.264 48.841 49.557c11.363 21.294 17.044 45.404 17.044 72.331 0 44.306-11.267 78.776-33.802 103.411s-53.663 36.953-93.385 36.953c-22.153 0-43.064-5.252-62.734-15.755l10.313 89.661h165.859v69.036h-233.75l-24.062-211.979z" />
</font>
</defs>
</svg>
